<?xml version="1.0" standalone="no"?>
<!DOCTYPE svg PUBLIC "-//W3C//DTD SVG 20010904//EN"
 "http://www.w3.org/TR/2001/REC-SVG-20010904/DTD/svg10.dtd">
<svg version="1.0" xmlns="http://www.w3.org/2000/svg"
 width="422.000000pt" height="232.000000pt" viewBox="0 0 422.000000 232.000000"
 preserveAspectRatio="xMidYMid meet">

<g transform="translate(0.000000,232.000000) scale(0.100000,-0.100000)"
fill="#000000" stroke="none">
<path d="M1045 2249 c-476 -112 -788 -553 -734 -1036 16 -147 89 -330 178
-448 118 -156 314 -296 473 -335 132 -34 220 -49 278 -50 84 0 275 39 364 75
138 55 321 196 396 305 19 28 9 21 -51 -32 -139 -123 -298 -204 -449 -228
-149 -23 -330 -10 -454 31 -208 69 -415 255 -520 466 -63 127 -100 363 -77
498 29 171 84 305 173 422 119 157 279 269 453 319 60 17 71 23 45 22 -19 0
-53 -4 -75 -9z"/>
<path d="M1125 2054 c-38 -8 -113 -35 -165 -61 -176 -86 -317 -259 -366 -453
-25 -100 -16 -292 20 -385 25 -66 104 -210 111 -203 2 2 -10 43 -27 93 -26 77
-30 104 -30 195 0 179 62 329 192 461 84 84 192 146 310 175 89 22 260 15 350
-16 189 -63 344 -216 415 -407 l14 -38 0 36 c1 20 -8 68 -20 105 -61 198 -189
355 -359 437 -151 73 -291 93 -445 61z"/>
<path d="M248 1748 c-43 -66 -99 -189 -130 -288 -20 -67 -23 -94 -23 -255 0
-177 1 -182 32 -272 140 -401 428 -632 846 -682 87 -10 207 -5 207 9 0 4 -40
10 -89 13 -125 8 -209 31 -336 91 -126 60 -249 148 -318 227 -207 233 -302
524 -268 819 11 99 55 250 98 333 13 27 22 51 20 53 -2 2 -20 -19 -39 -48z"/>
<path d="M1630 1110 l0 -130 45 0 45 0 0 130 0 130 -45 0 -45 0 0 -130z"/>
<path d="M1230 1105 l0 -127 139 4 c120 3 142 6 160 22 27 24 27 60 1 84 -18
17 -19 20 -5 32 21 18 19 64 -5 85 -17 15 -42 19 -155 22 l-135 4 0 -126z
m205 45 c0 -11 -14 -16 -52 -18 -48 -3 -53 -1 -53 18 0 19 5 21 53 18 38 -2
52 -7 52 -18z m5 -90 c0 -22 -31 -33 -76 -28 -21 2 -30 9 -32 26 -3 21 0 22
52 22 49 0 56 -2 56 -20z"/>
<path d="M2570 1219 c-39 -16 -60 -40 -60 -69 0 -43 33 -63 118 -75 89 -12
111 -35 34 -35 -27 0 -68 6 -90 14 -39 14 -40 14 -51 -10 -6 -14 -11 -29 -11
-34 0 -31 196 -41 254 -13 46 21 64 64 43 97 -17 25 -80 46 -139 46 -18 0 -40
4 -48 10 -12 8 -12 10 3 16 19 7 113 1 137 -10 11 -4 19 2 27 24 11 29 10 30
-25 40 -46 12 -159 12 -192 -1z"/>
<path d="M2995 1212 c-55 -8 -65 -13 -65 -32 0 -15 -7 -20 -25 -20 -21 0 -25
-5 -25 -30 0 -25 4 -30 25 -30 22 0 25 -4 25 -38 0 -65 17 -77 104 -77 84 0
102 10 92 49 -5 22 -9 25 -26 16 -28 -15 -67 -12 -74 6 -14 38 -7 44 49 44 54
0 55 0 55 30 0 30 -1 30 -54 30 -52 0 -55 1 -58 28 -2 21 -8 27 -23 24z"/>
<path d="M1810 1090 c0 -57 4 -74 20 -90 26 -26 85 -26 127 -1 31 19 31 19 36
0 4 -15 14 -19 46 -19 l41 0 0 91 0 90 -47 -3 -48 -3 -5 -60 c-5 -57 -6 -60
-34 -63 -37 -5 -46 10 -46 76 l0 52 -45 0 -45 0 0 -70z"/>
<path d="M2215 1147 c-40 -19 -56 -40 -57 -76 -2 -64 60 -95 177 -89 79 4 91
8 82 33 -5 11 -22 15 -76 15 -38 0 -73 5 -76 10 -4 6 25 10 80 10 l86 0 -3 32
c-5 46 -44 71 -121 75 -37 2 -74 -2 -92 -10z m106 -38 c27 -14 14 -29 -27 -29
-36 0 -49 25 -16 33 9 3 18 5 20 6 2 0 12 -4 23 -10z"/>
<path d="M3261 1144 c-42 -18 -60 -41 -61 -76 0 -31 28 -64 66 -78 32 -13 125
-13 157 -1 37 14 67 51 67 81 0 71 -135 115 -229 74z m117 -46 c35 -35 -1 -77
-54 -64 -18 5 -24 13 -24 35 0 16 6 32 13 34 22 10 53 7 65 -5z"/>
<path d="M3570 1070 l0 -90 45 0 45 0 0 54 c0 68 22 93 50 57 15 -20 23 -23
54 -17 27 5 36 12 36 26 0 27 -35 60 -64 60 -13 0 -35 -9 -49 -20 -14 -11 -27
-20 -30 -20 -3 0 -7 9 -10 20 -4 15 -14 20 -41 20 l-36 0 0 -90z"/>
<path d="M3920 1141 c-60 -32 -66 -101 -13 -137 22 -15 47 -19 120 -19 50 0
94 3 98 7 4 3 4 15 1 25 -5 15 -15 18 -72 15 -39 -2 -71 1 -77 7 -8 8 13 11
76 11 94 0 109 8 87 50 -31 58 -148 80 -220 41z m111 -31 c31 -17 22 -30 -21
-30 -42 0 -52 12 -22 29 21 13 20 13 43 1z"/>
</g>
</svg>
